<?xml version="1.0" standalone="no"?>
<!DOCTYPE svg PUBLIC "-//W3C//DTD SVG 1.1//EN" "http://www.w3.org/Graphics/SVG/1.1/DTD/svg11.dtd">
<svg viewBox="0 0 612 602" preserveAspectRatio="none" version="1.1" xmlns="http://www.w3.org/2000/svg" xmlns:xlink="http://www.w3.org/1999/xlink" xml:space="preserve" style="fill-rule:evenodd;clip-rule:evenodd;stroke-linejoin:round;stroke-miterlimit:1.41421;">
    <g transform="matrix(1.27645,0,0,1.27645,-75.2109,-163.149)">
        <path d="M306.1,-54.862C223.413,-54.862 58.535,-75.13 4,-21.252C-51.475,33.554 -39.317,232.676 -39.317,316.889C-39.317,398.795 -61.367,537.39 -7.848,596.929C25.865,634.434 166.319,599.182 212.695,614.641C227.795,617.441 231.1,590.5 231.1,582.6C231.1,575.4 230.8,551.6 230.7,526.3C146.7,544.6 129,490.6 129,490.6C115.3,455.7 95.5,446.4 95.5,446.4C68.1,427.6 97.6,428 97.6,428C127.9,430.1 143.9,459.2 143.9,459.2C170.8,505.4 214.5,492 231.8,484.3C234.5,464.8 242.3,451.4 251,443.9C183.9,436.3 113.4,410.3 113.4,294.5C113.4,261.5 125.2,234.5 144.5,213.4C141.4,205.8 131,175 147.4,133.4C147.4,133.4 172.8,125.3 230.5,164.4C254.6,157.7 280.4,154.3 306.1,154.2C331.8,154.3 357.6,157.7 381.8,164.4C439.4,125.3 464.8,133.4 464.8,133.4C481.2,175 470.9,205.8 467.8,213.4C487.2,234.6 498.9,261.5 498.9,294.5C498.9,410.6 428.3,436.2 361,443.6C371.8,453 381.5,471.4 381.5,499.6C381.5,540 381.2,572.6 381.2,582.5C381.2,590.5 390.587,617.641 405.887,614.641C449.383,600.106 580.105,647.078 618.051,614.641C684.531,557.813 642.448,388.695 642.448,303.707C642.448,226.484 690.022,7.068 642.448,-46.355C587.139,-108.463 395.77,-54.862 306.1,-54.862Z" style="fill:white;fill-rule:nonzero;"/>
    </g>
</svg>
